@startuml
title Datenatlas – DTM:157
class DTM_157 {
  Name: Datum/Uhrzeit/Zeitraum
  Prozesse:
    - Netznutzungsabrechnung
}
class DTM_157_msg_1 {
  Nachricht: PRICAT 2.0d
  Kontext: Beispiel:
  Pflichtfeld: Ja
  Codes: 00, 06, 157, 19, 303, 35, DTM
  Prozesse: Netznutzungsabrechnung
  Quelle: PRICAT_MIG_2_0d_20240619.pdf
}
DTM_157 --> DTM_157_msg_1 : verwendet in
class DTM_157_proc_1 <<process>> {
  Netznutzungsabrechnung
  Gesetze: StromNEV, StromNZV
  Zusammenfassung: Wie funktioniert die Netznutzungsabrechnung zwischen Netzbetreiber und Lieferant?
}
DTM_157 ..> DTM_157_proc_1 : eingebettet in
@enduml