@startuml
title Datenatlas – IDE:G_0086
class IDE_G_0086 {
  Name: Codeliste Gas Nr. G_0086 Codeliste zur Prüfung auf die Stornorechnung (Rechnung vom MSBN an den MSBA)
  Prozesse:
    - Netznutzungsabrechnung
}
class IDE_G_0086_msg_1 {
  Nachricht: REMADV 2.9c
  Kontext: Segmentlayout
  Pflichtfeld: Ja
  Codes: EBD, ESA, LF, MGV, MSB, NB, NN
  Prozesse: Netznutzungsabrechnung
  Quelle: REMADV_MIG_2.9c_20231024.pdf
}
IDE_G_0086 --> IDE_G_0086_msg_1 : verwendet in
class IDE_G_0086_proc_1 <<process>> {
  Netznutzungsabrechnung
  Gesetze: StromNEV, StromNZV
  Zusammenfassung: Wie funktioniert die Netznutzungsabrechnung zwischen Netzbetreiber und Lieferant?
}
IDE_G_0086 ..> IDE_G_0086_proc_1 : eingebettet in
@enduml