@startuml
title Datenatlas – LF:E_1010
class LF_E_1010 {
  Name: EBD Nr. E_1010_Prüfen, ob Antwort auf Stornierung erforderlich (Abrechnung einer sonstigen Leistung Gas)
  Prozesse:
    - Netznutzungsabrechnung
}
class LF_E_1010_msg_1 {
  Nachricht: REMADV 2.9c
  Kontext: Segmentlayout
  Pflichtfeld: Ja
  Codes: EBD, ESA, ID, LF, MGV, MSB, NB, NN, OCR
  Prozesse: Netznutzungsabrechnung
  Quelle: REMADV_MIG_2.9c_außerordentliche_20240726.pdf
}
LF_E_1010 --> LF_E_1010_msg_1 : verwendet in
class LF_E_1010_proc_1 <<process>> {
  Netznutzungsabrechnung
  Gesetze: StromNEV, StromNZV
  Zusammenfassung: Wie funktioniert die Netznutzungsabrechnung zwischen Netzbetreiber und Lieferant?
}
LF_E_1010 ..> LF_E_1010_proc_1 : eingebettet in
@enduml