@startuml
title Datenatlas – MOA:00052
class MOA_00052 {
  Name: Rechnungsbetrag
  Prozesse:
    - Netznutzungsabrechnung
    - Messstellenbetriebsabrechnung
}
class MOA_00052_msg_1 {
  Nachricht: INVOIC 2.8d
  Kontext: Nachrichtenstruktur
  Pflichtfeld: Ja
  Codes: 100, 20, MOA
  Prozesse: Netznutzungsabrechnung, Messstellenbetriebsabrechnung
  Quelle: INVOIC_MIG_2.8d_Fehlerkorrektur_20250131.pdf
}
MOA_00052 --> MOA_00052_msg_1 : verwendet in
class MOA_00052_msg_2 {
  Nachricht: INVOIC 2.8d.
  Kontext: Nachrichtenstruktur
  Pflichtfeld: Ja
  Codes: 100, 20, MOA
  Prozesse: Netznutzungsabrechnung, Messstellenbetriebsabrechnung
  Quelle: INVOIC_MIG_2_8d__20240619.pdf
}
MOA_00052 --> MOA_00052_msg_2 : verwendet in
class MOA_00052_proc_1 <<process>> {
  Netznutzungsabrechnung
  Gesetze: StromNEV, StromNZV
  Zusammenfassung: Wie funktioniert die Netznutzungsabrechnung zwischen Netzbetreiber und Lieferant?
}
MOA_00052 ..> MOA_00052_proc_1 : eingebettet in
class MOA_00052_proc_2 <<process>> {
  Messstellenbetriebsabrechnung
  Gesetze: MsbG
  Zusammenfassung: Beschreibe den Prozess der Abrechnung von Messstellenbetriebsleistungen.
}
MOA_00052 ..> MOA_00052_proc_2 : eingebettet in
@enduml