@startuml
title Datenatlas – RNG:C280
class RNG_C280 {
  Name: Wertebereich
  Prozesse:
    - Netznutzungsabrechnung
}
class RNG_C280_msg_1 {
  Nachricht: PRICAT 2.0d
  Kontext: Segmentlayout
  Pflichtfeld: Nein
  Codes: 10, 100, 18, ID, KWH, RNG
  Prozesse: Netznutzungsabrechnung
  Quelle: PRICAT_MIG_2_0d_20240619.pdf
}
RNG_C280 --> RNG_C280_msg_1 : verwendet in
class RNG_C280_proc_1 <<process>> {
  Netznutzungsabrechnung
  Gesetze: StromNEV, StromNZV
  Zusammenfassung: Wie funktioniert die Netznutzungsabrechnung zwischen Netzbetreiber und Lieferant?
}
RNG_C280 ..> RNG_C280_proc_1 : eingebettet in
@enduml