@startuml
title Datenatlas – PIA:1080
class PIA_1080 {
  Name: Erforderliches Produkt Konfigurationserlaubnis für Werte nach Typ 2 aus SMGW
  Prozesse:
    - Bestellung einer technischen Konfiguration (MSB)
    - Sperrung und Entsperrung eines Anschlusses
}
class PIA_1080_msg_1 {
  Nachricht: QUOTES 1.3a
  Kontext: Nachrichtenstruktur
  Pflichtfeld: Nein
  Codes: 25, PIA
  Prozesse: Bestellung einer technischen Konfiguration (MSB), Sperrung und Entsperrung eines Anschlusses
  Quelle: QUOTES_MIG_1_3a_Fehlerkorrektur_20241213.pdf
}
PIA_1080 --> PIA_1080_msg_1 : verwendet in
class PIA_1080_proc_1 <<process>> {
  Bestellung einer technischen Konfiguration (MSB)
  Gesetze: MsbG, EnWG
  Zusammenfassung: Erläutere den Prozess zur Bestellung einer spezifischen technischen Konfiguration bei einem Messstellenbetreiber, beispielsweise für ein intelligentes Messsystem.
}
PIA_1080 ..> PIA_1080_proc_1 : eingebettet in
class PIA_1080_proc_2 <<process>> {
  Sperrung und Entsperrung eines Anschlusses
  Gesetze: StromGVV
  Zusammenfassung: Beschreibe den End-to-End-Prozess für die Sperrung und Wiederherstellung eines Netzanschlusses.
}
PIA_1080 ..> PIA_1080_proc_2 : eingebettet in
@enduml